PathFileType	4	(X/Y/Z)	27_1_tpose_p0_0-261_filt_butterworth.trc
DataRate	CameraRate	NumFrames	NumMarkers	Units	OrigDataRate	OrigDataStartFrame	OrigNumFrames
60.0	60.0	6	27	m	60.0	195	261
Frame#	Time	RHip			RKnee			RAnkle			RBigToe			RSmallToe			RHeel			LHip			LKnee			LAnkle			LBigToe			LSmallToe			LHeel			Neck			Head			Nose			RShoulder			RElbow			RWrist			RThumb			RIndex			RPinky			LShoulder			LElbow			LWrist			LThumb			LIndex			LPinky			
		X1	Y1	Z1	X2	Y2	Z2	X3	Y3	Z3	X4	Y4	Z4	X5	Y5	Z5	X6	Y6	Z6	X7	Y7	Z7	X8	Y8	Z8	X9	Y9	Z9	X10	Y10	Z10	X11	Y11	Z11	X12	Y12	Z12	X13	Y13	Z13	X14	Y14	Z14	X15	Y15	Z15	X16	Y16	Z16	X17	Y17	Z17	X18	Y18	Z18	X19	Y19	Z19	X20	Y20	Z20	X21	Y21	Z21	X22	Y22	Z22	X23	Y23	Z23	X24	Y24	Z24	X25	Y25	Z25	X26	Y26	Z26	X27	Y27	Z27	
195	3.25	0.1543762279292888	0.9930780942417969	0.710843693178585	0.16028699269958363	0.48538917215490557	0.7667603079678791	0.1792079194910435	-0.007713818786476187	0.853106175158267	0.11860038897144964	0.0037095029499774126	0.6111229884095191	0.18658105512891704	-7.058385191868743e-05	0.6351836474717631	0.17390163179578144	-0.09392558109946057	0.9172941214628101	-0.06152861584580913	0.9768333431225853	0.7446087131158479	-0.037011751952679924	0.4753644804116051	0.7823877217742513	-0.015564306072958757	0.002230268863361473	0.834589241600614	-0.030004460998369887	0.02532867771303171	0.6119003545599541	-0.07963581300571787	0.009166864603400118	0.6567248330175047	0.01797285065068833	-0.08175069806517643	0.919079594198517	0.009685540320481158	1.5385210931164346	0.7521450133938681	0.018489846175746737	1.778340714333437	0.6947031609069293	-0.011252774824352305	1.660679871879788	0.6228268919401532	0.1724688290818277	1.4943267811754264	0.7255271670822618	0.4302949313348329	1.3995795641139517	0.7671609418058295	0.7025979935154416	1.3895073221102925	0.7766389956328098	0.8497438217787756	1.3787903328959383	0.7378561854016827	0.8814132788335849	1.3921744556763573	0.7036390879383319	0.8550243182834424	1.3722634499385937	0.761015741300319	-0.1518989469886584	1.4869042698027488	0.7480374624405641	-0.39540739768212907	1.3998674938398346	0.8064003727662294	-0.6335518065456596	1.3613992338094063	0.9119133538367034	-0.6963211830848518	1.3349769073489937	0.9261874706369271	-0.7796951334875456	1.3260817808042342	0.9683154153122553	-0.7940596741232347	1.3332007308895546	0.9259446022065405	
196	3.2666666666666666	0.15433457059448052	0.993051987577825	0.710737201960296	0.1603511027462568	0.48547478986224796	0.7667703103971909	0.179355947957209	-0.007487556189893149	0.8526288268235944	0.11857881276820043	0.0036977391750355054	0.6111731499953431	0.18632118152278054	-0.0009662403192864655	0.6350393099316984	0.17396624615727882	-0.09354570515800063	0.9169867303525421	-0.06152064762474597	0.976834188513255	0.744603282355297	-0.036973348894324354	0.47536828824458455	0.7823539763193944	-0.015616808917592113	0.0018055330642534895	0.8345272658882208	-0.030004150373217194	0.025365133495159786	0.6118328654729479	-0.07965180434371869	0.009363296849427438	0.6565996776230552	0.017758786360218482	-0.08256257912088244	0.9203804090963703	0.009689694106978012	1.5381025655235876	0.7520767475068506	0.0184419404047859	1.7786114285662684	0.6947429299095181	-0.01110095754794163	1.6606837563502248	0.6227869699082461	0.17234527245236675	1.494395140628285	0.7255029131168864	0.42970563359354697	1.3998656329432253	0.7649557176853062	0.7008663786002038	1.3909648704364732	0.7688048552681399	0.8466879812469283	1.3803617529062011	0.7332126786093263	0.881387066007763	1.3929257294258222	0.7025533571137738	0.8587031253325415	1.3722829347476753	0.7641103393048079	-0.1527859948851502	1.487586957587621	0.7475771330546352	-0.39552551996637	1.3997915882827474	0.8062343942530514	-0.6341800535376079	1.3616523621185945	0.9115867945375336	-0.6955481157298695	1.3361146932079355	0.9227945795208611	-0.779969074136162	1.3256610182784265	0.9665511194757958	-0.794027593817159	1.3324202076587655	0.9303245274735594	
197	3.283333333333333	0.1543924904980988	0.9929752359882842	0.7108535556509523	0.16040584962144722	0.48552807518408597	0.7669540449559878	0.1794979829803631	-0.006736461295266519	0.8512545177102794	0.11858334186792373	0.0036870418166600194	0.6112379521395355	0.1861740027301725	-0.0015683168326779268	0.6346873086020245	0.17385514448007636	-0.09307622621708282	0.9163625671465978	-0.06163407129641607	0.9768328553922715	0.7445802283079915	-0.03684184617224371	0.4753791121048362	0.7823179136225402	-0.015664257222696633	0.001756526960015381	0.8344046249381863	-0.030001975456052096	0.02539913908301511	0.6117817972861188	-0.07962895724943263	0.009550982544259942	0.6565119341353609	0.017621404160624923	-0.0830759912349034	0.9212058103493653	0.009686273638586566	1.5381799298913978	0.7520703189710312	0.018377926371178122	1.7791221916009996	0.6948179285888574	-0.010786987141932498	1.6607865984329444	0.6215795196927658	0.17240536417242963	1.4943254835851891	0.7255141111693346	0.42910608580335935	1.4000422356077313	0.7632321888992396	0.6974437684032082	1.392603575803737	0.7582044426476576	0.8366417850757634	1.3819553546822418	0.7224670793634954	0.879615072975702	1.393667281551842	0.6999032638312686	0.8597478725743222	1.3726012041671611	0.7656694918632201	-0.15352337393579185	1.488360537653412	0.7471437499785416	-0.39573345429551904	1.399490880375204	0.8059281367097881	-0.6345657261684119	1.361941825949735	0.912334852506058	-0.6953652538582644	1.336836395757597	0.9194429082738751	-0.7798095401609466	1.3254860751531476	0.964491149868695	-0.7939129809070338	1.3319446042763714	0.9332556483401611	
198	3.3	0.15451089668413956	0.9928635860177177	0.7111257954451122	0.1604435247316775	0.4854893429755773	0.7673097273692685	0.17962176893938797	-0.005622203557487368	0.849328959830982	0.11860368232428456	0.0036675822941376196	0.6113156521544022	0.1861317691650552	-0.001762001411001357	0.6344187350106677	0.1735833408658794	-0.09253067973637163	0.9154143945271956	-0.06189056367785821	0.9768273313622544	0.7445372386211767	-0.03669564442424816	0.4753978092980641	0.7822793381466353	-0.015713668409946556	0.0020462777705160112	0.8342141279485225	-0.029997216358352508	0.02542685621364072	0.6117584818402404	-0.07959695423419584	0.00962565080536612	0.6565034781721804	0.017575663257603902	-0.0832458300882261	0.9214863380238131	0.009686538553399569	1.5387187349445124	0.7521267871257908	0.0183046655651542	1.7798109215268343	0.6949158395774859	-0.010619011172777998	1.660934303921474	0.619658370777671	0.17248907490978832	1.4942391895420275	0.7255182487174667	0.428484857802767	1.4001487546905709	0.7621438710068165	0.6922240947207091	1.3944470444808021	0.7453749344209584	0.8217236271437846	1.3837624192383926	0.7058219270420631	0.8757429217240862	1.394791977950931	0.694617043889589	0.8580981150421161	1.3732369281380026	0.7658216297986635	-0.15404297473237863	1.489128069400203	0.7467881253802715	-0.3960086822054001	1.398963891395532	0.8055645272596652	-0.6345873011513139	1.3623544409744797	0.913338953847548	-0.6954798505021271	1.3370400813852545	0.9160489986578504	-0.7792199417394126	1.3254523050398261	0.9624015171503411	-0.7938891374005035	1.3317769328598699	0.9343047447383213	
199	3.316666666666667	0.15462936730356833	0.9927564484159764	0.7114145755927646	0.16045539502405273	0.4853053180757632	0.7678352259570972	0.17974275025309192	-0.0044206090628187145	0.8473431945467583	0.11861323214828075	0.003623135363382983	0.6113895920305918	0.18611768782617838	-0.0016547049763504934	0.6342904694353231	0.1732132644593834	-0.09187605250134713	0.9141322404699451	-0.06230644285929118	0.9768189403832621	0.744471735549495	-0.036594424804769134	0.47542240732406604	0.7822419355660823	-0.015784054577858437	0.0026198328301968027	0.8339636942877863	-0.029992524600208147	0.02544196629694237	0.6117697121866993	-0.07956851123845078	0.009599785946682454	0.6565797802765398	0.017606580184435363	-0.08313063046048606	0.9213150409678221	0.009688992582292291	1.5395699665178844	0.7522282077552191	0.018232545700584857	1.7805258686317242	0.6950163736357743	-0.010804954670829727	1.6610803327632655	0.6174841516819966	0.17251110312485612	1.494199551132641	0.7254926923611119	0.42762192580224606	1.4003042787809659	0.7616546647790274	0.6855899508179759	1.3963953901723476	0.7321716164066522	0.8054968107036031	1.3859525611455068	0.6857156699081739	0.8704387096075241	1.3962963806148128	0.6870442126639746	0.8547914338521889	1.374057934295057	0.7649414931802456	-0.15431799570918936	1.4897241382717787	0.746586123317061	-0.39616279046874003	1.3982740195479462	0.8053210273001058	-0.6338570863403998	1.3629130002247711	0.9135628756324199	-0.6952953420390177	1.336820054577434	0.9120104201401414	-0.7782613827662668	1.325524004218886	0.9604576060028794	-0.7938775031990422	1.3319469804491664	0.9340201502503547	
200	3.333333333333333	0.154697589951519	0.9926907404799081	0.7115934915794125	0.1604334766443367	0.48495386808128105	0.7685326361082898	0.17989050449293797	-0.003359646207162878	0.8456422749951547	0.1185954464442027	0.003547209122858601	0.611442922298964	0.18609494798900067	-0.0014909221850223503	0.6342592719252088	0.1728083414080498	-0.09109735540665563	0.9125331534209792	-0.06284781309906146	0.9768107803401315	0.7443859471113299	-0.03654872605378487	0.4754479824196798	0.7822120460794809	-0.015893383482253585	0.003387523586015198	0.8336818385564131	-0.029992620972761466	0.02543544275498378	0.6118178811983034	-0.07954167544252863	0.009526511167862517	0.6567187207116579	0.017679391187574212	-0.08285022238918527	0.9208809098749706	0.009689366747894125	1.5405342933550583	0.7523471432238061	0.018171458237796992	1.7810485968195588	0.6950954818075826	-0.011355792079297145	1.6612053624886933	0.6153427164001313	0.17247994436149106	1.4941983967413197	0.7254417635828387	0.4263310126299843	1.400604397708021	0.7616545581216548	0.6786438844381157	1.3981519273837872	0.7216208908095982	0.7911302042023565	1.3885387977839283	0.6654112570704562	0.8651632278480108	1.3977932803303372	0.6790455437809737	0.8507524519789863	1.3749390361749239	0.7629145619384379	-0.15432920142026596	1.489948368213359	0.7466164398100236	-0.3959015985428178	1.3975214772221856	0.805312839130482	-0.6319917013975476	1.3635497394115321	0.9122653761525117	-0.6940830883197606	1.3365964896779565	0.9059821046024024	-0.7770067019279825	1.3257037985453652	0.9587811253073062	-0.793597606784256	1.3324461604180042	0.9334916207723146	
